# xmcd
#
# Track frame offsets:
#	150
#	15185
#	28530
#	44936
#	56187
#	69887
#	84331
#	98703
#	112223
#	126060
#	141470
#	157051
#
# Disc length: 2310 seconds
#
# Revision: 0
# Processed by: cddbd v1.5.2PL0 Copyright (c) Steve Scherf et al.
# Submitted via: EasyCDDAExtractor 16.0.6.1
#
DISCID=a509040c
DTITLE=Συλλογικός δίσκος - Το τελευταίο βράδυ-Ε. Παπαγιαννοπούλου 1
DYEAR=2009
DGENRE=Λαϊκή
TTITLE0=Καζαντζίδης Στέλιος-Μαρινέλλα - Τώρα που φεύγω απ' τη ζωή [1960]
TTITLE1=Λίντα Μαίρη-Χιώτης Μανώλης - Ηλιοβασιλέματα [1957]
TTITLE2=Λίντα Μαίρη-Χιώτης Μανώλης - Περασμένες μου αγάπες [1960]
TTITLE3=Πάνου Πόλυ-Μπιθικώτσης Γρηγόρης - Βρε μοίρα δεν κουράστηκες [1960]
TTITLE4=Καζαντζίδης Στέλιος - Απ' τα ψηλά στα χαμηλά [1958]
TTITLE5=Καζαντζίδης Στέλιος - Ποιος θα με πληροφορήσει [1958]
TTITLE6=Γαβαλάς Πάνος - Θα βρω μουρμούρη μπαγλαμά [1956]
TTITLE7=Καζαντζίδης Στέλιος - Σαν σήμερα χωρίσαμε [1957]
TTITLE8=Καζαντζίδης Στέλιος - Με χειροπέδες με περνούν [1957]
TTITLE9=Λύδια Γιώτα-Καζαντζόγλου Μπάμπης - Συρματοπλέγματα βαριά [1955]
TTITLE10=Τζουανάκος Σταύρος - Μα είναι και Θεός [1953]
TTITLE11=Τζουανάκος Σταύρος - Του χωρισμού η μαχαιριά [1951]
EXTD=
EXTT0=
EXTT1=
EXTT2=
EXTT3=
EXTT4=
EXTT5=
EXTT6=
EXTT7=
EXTT8=
EXTT9=
EXTT10=
EXTT11=
PLAYORDER=
